<svg width="1761" height="1467" viewBox="0 0 1761 1467" fill="none" xmlns="http://www.w3.org/2000/svg">
<path d="M1228 1016C1228 1023.18 1233.82 1029 1241 1029C1248.18 1029 1254 1023.18 1254 1016C1254 1008.82 1248.18 1003 1241 1003C1233.82 1003 1228 1008.82 1228 1016Z" fill="white"/>
<path d="M1204.49 944C1204.49 949.799 1209.19 954.5 1214.99 954.5C1220.79 954.5 1225.49 949.799 1225.49 944C1225.49 938.201 1220.79 933.5 1214.99 933.5C1209.19 933.5 1204.49 938.201 1204.49 944Z" stroke="white" stroke-width="5"/>
<line x1="1037.99" y1="840.5" x2="1105.99" y2="840.5" stroke="white" stroke-width="5"/>
<path d="M1103.63 839L1144.16 945.681" stroke="white" stroke-width="5"/>
<path d="M1141.99 944H1206.99" stroke="white" stroke-width="5"/>
<path d="M1176.33 944.117L1196.69 1016.67" stroke="white" stroke-width="5"/>
<path d="M1196.5 1016.5H1227.5" stroke="white" stroke-width="5" stroke-linecap="round"/>
<path d="M1038.49 722.04L1095.49 721.5" stroke="white" stroke-width="5"/>
<line x1="1038.99" y1="793.908" x2="1133" y2="794.092" stroke="white" stroke-width="5"/>
<path d="M893 16C893 23.1797 887.18 29 880 29C872.82 29 867 23.1797 867 16C867 8.8203 872.82 3 880 3C887.18 3 893 8.8203 893 16Z" fill="white"/>
<path d="M871.988 1454C871.988 1461.18 877.808 1467 884.988 1467C892.167 1467 897.988 1461.18 897.988 1454C897.988 1446.82 892.167 1441 884.988 1441C877.808 1441 871.988 1446.82 871.988 1454Z" fill="white"/>
<path d="M879.5 27L884.455 1453.99" stroke="white" stroke-width="5"/>
<rect x="746.963" y="658" width="264" height="260" rx="50" fill="#529A6F"/>
<rect x="765.963" y="677" width="227" height="221" rx="50" fill="#004D40"/>
<rect x="799.963" y="710" width="158" height="156" fill="#8FBC8F"/>
<line x1="1035" y1="733.5" x2="1064" y2="733.5" stroke="#FFE500" stroke-width="5"/>
<line x1="1035" y1="759.5" x2="1064" y2="759.5" stroke="#FFE500" stroke-width="5"/>
<path d="M1036 783H1065" stroke="#FFE500" stroke-width="5"/>
<line x1="1037.99" y1="811.5" x2="1065.99" y2="811.5" stroke="#FFE500" stroke-width="5"/>
<line x1="1036.99" y1="836.5" x2="1065.99" y2="836.5" stroke="#FFE500" stroke-width="5"/>
<line x1="693.963" y1="733.5" x2="722.963" y2="733.5" stroke="#FFE500" stroke-width="5"/>
<line x1="693.963" y1="759.5" x2="722.963" y2="759.5" stroke="#FFE500" stroke-width="5"/>
<line x1="693.963" y1="785.5" x2="722.963" y2="785.5" stroke="#FFE500" stroke-width="5"/>
<line x1="693.963" y1="811.5" x2="722.963" y2="811.5" stroke="#FFE500" stroke-width="5"/>
<line x1="693.963" y1="836.5" x2="722.963" y2="836.5" stroke="#FFE500" stroke-width="5"/>
<path d="M0.987549 260H788.486C816.558 260 830.594 260 839.366 268.7C848.138 277.4 848.253 291.435 848.484 319.507L850.963 621" stroke="#FFE500" stroke-width="5"/>
<rect x="721.488" y="623.5" width="316" height="318" rx="72.5" stroke="#E6B224" stroke-width="5"/>
<path d="M1158.99 794.5C1158.99 801.956 1152.94 808 1145.49 808C1138.03 808 1131.99 801.956 1131.99 794.5C1131.99 787.044 1138.03 781 1145.49 781C1152.94 781 1158.99 787.044 1158.99 794.5Z" fill="white"/>
<line x1="879.456" y1="248.557" x2="1458.46" y2="122.557" stroke="white" stroke-width="5"/>
<line x1="1456.49" y1="125" x2="1456.49" y2="40" stroke="white" stroke-width="5"/>
<path d="M879.668 197.478L299 121" stroke="white" stroke-width="5" stroke-linecap="round"/>
<path d="M298.988 121V25" stroke="white" stroke-width="5"/>
<path d="M1322 560C1322 567.18 1327.82 573 1335 573C1342.18 573 1348 567.18 1348 560C1348 552.82 1342.18 547 1335 547C1327.82 547 1322 552.82 1322 560Z" fill="white"/>
<path d="M1203.52 656C1203.52 661.799 1208.22 666.5 1214.02 666.5C1219.82 666.5 1224.52 661.799 1224.52 656C1224.52 650.201 1219.82 645.5 1214.02 645.5C1208.22 645.5 1203.52 650.201 1203.52 656Z" stroke="white" stroke-width="5"/>
<path d="M1095.49 721.5L1132.99 656.5" stroke="white" stroke-width="5" stroke-linecap="round"/>
<line x1="1133.02" y1="656.5" x2="1203.02" y2="656.5" stroke="white" stroke-width="5"/>
<path d="M1217.2 560.698C1217.86 559.485 1217.41 557.967 1216.2 557.306C1214.99 556.645 1213.47 557.093 1212.81 558.305L1217.2 560.698ZM1164.9 656.651L1217.2 560.698L1212.81 558.305L1160.51 654.258L1164.9 656.651Z" fill="white"/>
<line x1="1215" y1="559.5" x2="1323" y2="559.5" stroke="white" stroke-width="5"/>
<path d="M361.988 654.333C361.988 661.697 355.944 667.667 348.488 667.667C341.032 667.667 334.988 661.697 334.988 654.333C334.988 646.97 341.032 641 348.488 641C355.944 641 361.988 646.97 361.988 654.333Z" fill="white"/>
<path d="M521.488 696.308C521.488 701.989 516.816 706.648 510.988 706.648C505.159 706.648 500.488 701.989 500.488 696.308C500.488 690.627 505.159 685.969 510.988 685.969C516.816 685.969 521.488 690.627 521.488 696.308Z" stroke="white" stroke-width="5"/>
<line x1="718.988" y1="722.513" x2="657.988" y2="722.513" stroke="white" stroke-width="5"/>
<line y1="-2.5" x2="45.3956" y2="-2.5" transform="matrix(-0.793028 -0.609185 0.618689 -0.785636 660.988 721)" stroke="white" stroke-width="5"/>
<line x1="624.988" y1="695.846" x2="520.988" y2="695.846" stroke="white" stroke-width="5"/>
<line y1="-2.5" x2="60.4708" y2="-2.5" transform="matrix(-0.727624 -0.685976 0.694952 -0.719056 576.988 694.333)" stroke="white" stroke-width="5"/>
<line x1="532.989" y1="655.5" x2="359.988" y2="655.528" stroke="white" stroke-width="5"/>
<path d="M446.988 892.569C446.988 900.025 440.944 906.069 433.488 906.069C426.032 906.069 419.988 900.025 419.988 892.569C419.988 885.113 426.032 879.069 433.488 879.069C440.944 879.069 446.988 885.113 446.988 892.569Z" fill="white"/>
<path d="M584.487 840.569C583.106 840.57 581.987 841.689 581.988 843.07C581.988 844.451 583.107 845.57 584.488 845.569L584.487 840.569ZM718.99 840.534L584.487 840.569L584.488 845.569L718.991 845.534L718.99 840.534Z" fill="white"/>
<path d="M519.441 891.105C518.356 891.959 518.169 893.531 519.023 894.616C519.878 895.701 521.449 895.888 522.534 895.034L519.441 891.105ZM582.999 841.06L519.441 891.105L522.534 895.034L586.092 844.989L582.999 841.06Z" fill="white"/>
<path d="M520.988 895.569C522.368 895.569 523.488 894.45 523.488 893.069C523.488 891.689 522.368 890.569 520.988 890.569V895.569ZM520.988 890.569H440.988V895.569H520.988V890.569Z" fill="white"/>
<path d="M1761 260H973.472C945.402 260 931.367 260 922.595 268.699C913.824 277.398 913.707 291.432 913.474 319.501L911 617" stroke="#FFE500" stroke-width="5"/>
<path d="M1469 33C1469 40.1797 1463.18 46 1456 46C1448.82 46 1443 40.1797 1443 33C1443 25.8203 1448.82 20 1456 20C1463.18 20 1469 25.8203 1469 33Z" fill="white"/>
<path d="M312 13C312 20.1797 306.18 26 299 26C291.82 26 286 20.1797 286 13C286 5.8203 291.82 0 299 0C306.18 0 312 5.8203 312 13Z" fill="white"/>
</svg>
