<svg width="67" height="49" viewBox="0 0 67 49" fill="none" xmlns="http://www.w3.org/2000/svg">
<path d="M54.9121 22.876C57.9454 23.4545 60.9629 17.9453 62.8113 17.3668C64.6597 16.7884 65.9709 20.5897 65.9709 25.6306C65.9709 29.4182 65.576 34.0183 63.6012 33.8944C61.1998 33.7566 59.383 27.9307 54.9121 29.7625V22.876Z" stroke="white" stroke-linecap="round" stroke-linejoin="round"/>
<path d="M54.9121 24.3834C58.8414 24.3033 62.6359 23.7678 65.8581 22.8384ZM54.9121 26.7066C54.9121 26.7066 62.9523 26.7066 65.9709 28.3678Z" fill="#FFE500"/>
<path d="M54.9121 24.3834C58.8414 24.3033 62.6359 23.7678 65.8581 22.8384M54.9121 26.7066C54.9121 26.7066 62.9523 26.7066 65.9709 28.3678" stroke="white" stroke-linecap="round" stroke-linejoin="round"/>
<path d="M49.1809 38.2315C48.6991 33.2535 55.021 29.7497 55.021 29.7497L55.021 26.553V22.9034C55.021 22.9034 45.0929 19.7064 44.8009 12.6847C44.5527 6.72863 53.6778 4.29074 61.1823 2.46596C61.3759 2.4408 61.5516 2.33976 61.6707 2.18508C61.7898 2.0304 61.8425 1.83475 61.8174 1.64117C61.7922 1.44758 61.6912 1.27192 61.5365 1.15283C61.3818 1.03374 61.1861 0.980979 60.9925 1.00614C53.123 1.09373 39.5302 1.98422 28.7407 6.11551C22.0561 8.59283 16.4476 13.328 12.8849 19.502C11 22.8537 7.99778 25.437 4.4022 26.8011L1.94937 27.6916C1.66992 27.796 1.42917 27.9835 1.2595 28.2288C1.08983 28.4742 0.999393 28.7656 1.00036 29.0638V30.5237C0.992807 30.8631 1.10385 31.1946 1.31437 31.4611C1.52489 31.7275 1.82172 31.9123 2.15378 31.9835L4.373 32.4506C8.60048 33.3908 12.3538 35.8082 14.9581 39.268C16.7938 41.6356 19.0915 43.6056 21.7117 45.0586C24.3318 46.5115 27.2199 47.4171 30.2007 47.7203C38.1299 48.4757 46.1304 47.6975 53.7654 45.4284C53.9084 45.3912 54.0364 45.3106 54.1317 45.1978C54.2271 45.0849 54.2851 44.9453 54.2979 44.7981C54.3107 44.6509 54.2777 44.5034 54.2032 44.3758C54.1288 44.2481 54.0166 44.1467 53.8822 44.0854C52.6614 43.596 51.5874 42.8002 50.7639 41.7748C49.9404 40.7494 49.3952 39.529 49.1809 38.2315Z" stroke="white" stroke-linecap="round" stroke-linejoin="round"/>
</svg>
