<svg width="92" height="50" viewBox="0 0 92 50" fill="none" xmlns="http://www.w3.org/2000/svg">
<path d="M27.2173 22.126C27.4168 22.927 32.1268 40.1935 27.2023 40.885C22.2778 41.5765 21.5173 42.622 21.6493 46.0975H34.7758L41.0248 40.339M67.6408 47.197H57.4288C57.4288 47.197 56.8753 41.896 61.2958 41.47C65.7163 41.044 64.4038 35.278 64.4038 35.278C59.5888 36.49 54.5488 36.49 49.7353 35.278M75.5173 42.2305C75.5173 42.2305 64.6633 32.7025 63.7828 25.7815" stroke="#F7FFFA" stroke-linecap="round" stroke-linejoin="round"/>
<path d="M49.909 40.2716C49.909 40.2716 51.9385 40.6541 54.2515 40.8851C55.2865 48.5681 47.749 46.3841 46.5115 45.4001C45.274 44.4161 31.7425 26.5391 27.217 22.1261C27.2085 22.1165 27.2032 22.1044 27.202 22.0916C20.2885 15.3461 17.488 15.0386 17.041 15.0386H16.9735C4.25055 20.0306 2.75955 15.4916 1.14255 13.0736C-0.376952 10.8026 10.6165 4.43507 16.7425 2.70407C19.1065 2.03507 19.771 3.18257 23.29 3.23807C23.29 3.23807 48.169 4.27157 49.693 4.13507C51.0685 3.99857 56.8375 2.48207 57.9145 2.20907C58.0135 2.17457 58.0795 2.15807 58.0795 2.15807C60.4449 1.38489 62.9185 0.993982 65.407 1.00007C76.594 1.00007 90.022 12.4271 90.7165 15.0611V16.2206C90.7233 16.4821 90.6592 16.7406 90.531 16.9687C90.4029 17.1968 90.2154 17.3859 89.9885 17.5162C89.7616 17.6464 89.5036 17.7128 89.2421 17.7084C88.9805 17.704 88.7249 17.6289 88.5026 17.4911L84.2245 14.7761" stroke="#F7FFFA" stroke-linecap="round" stroke-linejoin="round"/>
<path d="M75.5169 42.2305C75.5169 42.2305 65.6124 42.8905 67.9944 48.568H82.0164C82.0164 48.568 85.4829 48.409 84.1164 39.784C84.1164 39.784 89.4054 26.0965 86.2134 16.018M17.4819 5.56003C17.4819 5.56003 20.9349 4.99003 19.5534 10.174" stroke="#F7FFFA" stroke-linecap="round" stroke-linejoin="round"/>
</svg>
