<svg width="120" height="48" viewBox="0 0 120 48" fill="none" xmlns="http://www.w3.org/2000/svg">
<path d="M67.6589 32.7167C67.6589 32.7167 82.0687 29.5985 93.2207 32.7167C104.373 35.8349 119 31.6773 119 31.6773C119 31.6773 104.983 33.0638 90.9683 24.0544C76.9534 15.045 65.9825 20.9362 54.0992 20.0715C42.216 19.2046 28.1992 10.5423 21.4971 5.51999C14.7931 0.495573 10.3744 1.01527 10.3744 1.01527C10.3744 1.01527 9.30855 2.57436 5.65216 4.65314C1.99578 6.73192 -3.48879 8.8107 7.48035 12.9683C18.4495 17.1258 23.6288 23.015 23.6288 23.015M33.7825 29.6526C33.7825 29.6526 44.2325 33.4089 53.1851 32.5421M29.4186 25.441L23.9341 39.9924M23.9341 35.8349H22.1059M25.7623 35.8349L27.5905 37.9136M61.4979 32.7292L60.6423 47M59.4339 43.5887L57.7373 44.3662M61.1286 42.8113L63.4285 43.7405" stroke="white" stroke-miterlimit="10" stroke-linecap="round" stroke-linejoin="round"/>
</svg>
