<svg width="247" height="137" viewBox="0 0 247 137" fill="none" xmlns="http://www.w3.org/2000/svg">
<path d="M72.5695 60.957C73.1143 63.2303 85.9764 112.234 72.5285 114.196C59.0807 116.159 57.0039 119.126 57.3643 128.99H93.2103L110.275 112.647M182.958 132.11H155.071C155.071 132.11 153.56 117.065 165.631 115.856C177.703 114.647 174.119 98.2832 174.119 98.2832C160.97 101.723 147.207 101.723 134.062 98.2832M204.467 118.015C204.467 118.015 174.827 90.9738 172.423 71.3316" stroke="#F7FFFA" stroke-width="1.62734" stroke-linecap="round" stroke-linejoin="round"/>
<path d="M134.537 112.455C134.537 112.455 140.079 113.541 146.395 114.196C149.221 136.001 128.638 129.803 125.259 127.01C121.879 124.217 84.9273 73.4814 72.569 60.9571C72.5456 60.9298 72.5313 60.8955 72.5281 60.8592C53.6486 41.715 46.001 40.8423 44.7803 40.8423H44.596C9.85196 55.0099 5.78033 42.128 1.36461 35.2655C-2.78485 28.8203 27.2363 10.7489 43.9652 5.83626C50.4208 3.9376 52.2355 7.19427 61.8452 7.35178C61.8452 7.35178 129.785 10.2849 133.947 9.89752C137.703 9.51012 153.457 5.20621 156.398 4.43142C156.668 4.33351 156.849 4.28668 156.849 4.28668C163.308 2.09235 170.063 0.98292 176.859 1.0002C207.408 1.0002 244.077 33.4307 245.974 40.9062V44.1969C245.992 44.9392 245.817 45.6728 245.467 46.3201C245.117 46.9674 244.605 47.5043 243.986 47.8738C243.366 48.2434 242.662 48.4319 241.947 48.4193C241.233 48.4068 240.535 48.1937 239.928 47.8027L228.246 40.0973" stroke="#F7FFFA" stroke-width="1.62734" stroke-linecap="round" stroke-linejoin="round"/>
<path d="M204.466 118.014C204.466 118.014 177.419 119.887 183.924 136.001H222.215C222.215 136.001 231.682 135.549 227.95 111.071C227.95 111.071 242.393 72.2251 233.676 43.6217M45.9839 13.9412C45.9839 13.9412 55.4134 12.3235 51.6408 27.0361" stroke="#F7FFFA" stroke-width="1.62734" stroke-linecap="round" stroke-linejoin="round"/>
</svg>
