<svg width="183" height="136" viewBox="0 0 183 136" fill="none" xmlns="http://www.w3.org/2000/svg">
<path d="M151.167 63.3692C159.617 65.0184 168.024 49.3114 173.173 47.6621C178.322 46.0129 181.975 56.8507 181.975 71.2227C181.975 82.0213 180.875 95.1366 175.373 94.7832C168.684 94.3905 163.622 77.7804 151.167 83.003V63.3692Z" stroke="white" stroke-width="1.8162" stroke-linecap="round" stroke-linejoin="round"/>
<path d="M151.167 67.6685C162.113 67.4404 172.684 65.9134 181.661 63.2637ZM151.167 74.2923C151.167 74.2923 173.566 74.2923 181.975 79.0284Z" fill="#FFE500"/>
<path d="M151.167 67.6685C162.113 67.4404 172.684 65.9134 181.661 63.2637M151.167 74.2923C151.167 74.2923 173.566 74.2923 181.975 79.0284" stroke="white" stroke-width="1.8162" stroke-linecap="round" stroke-linejoin="round"/>
<path d="M135.2 107.149C133.858 92.9569 151.47 82.9673 151.47 82.9673L151.47 73.8531V63.448C151.47 63.448 123.812 54.3332 122.998 34.3138C122.307 17.3327 147.728 10.3821 168.634 5.17955C169.174 5.1078 169.663 4.81974 169.995 4.37874C170.327 3.93774 170.474 3.37992 170.404 2.828C170.334 2.27608 170.052 1.77527 169.621 1.43574C169.19 1.09621 168.645 0.945769 168.106 1.01752C146.182 1.26724 108.315 3.80608 78.2569 15.5846C59.6347 22.6476 44.01 36.1478 34.085 53.7505C28.834 63.3063 20.4701 70.6716 10.4534 74.5607L3.62016 77.0995C2.84166 77.3971 2.17093 77.9317 1.69826 78.6311C1.22559 79.3306 0.973649 80.1614 0.976349 81.0118V85.1738C0.955303 86.1417 1.26464 87.0868 1.85113 87.8465C2.43761 88.6061 3.26454 89.1328 4.18959 89.3359L10.372 90.6677C22.1492 93.3483 32.6055 100.24 39.8607 110.104C44.9747 116.855 51.3756 122.471 58.675 126.614C65.9745 130.756 74.0203 133.338 82.3243 134.203C104.414 136.356 126.702 134.138 147.972 127.668C148.37 127.562 148.727 127.332 148.993 127.011C149.258 126.689 149.42 126.291 149.456 125.871C149.491 125.452 149.399 125.031 149.192 124.667C148.984 124.303 148.672 124.014 148.297 123.839C144.897 122.444 141.905 120.175 139.61 117.251C137.316 114.328 135.797 110.849 135.2 107.149Z" stroke="white" stroke-width="1.8162" stroke-linecap="round" stroke-linejoin="round"/>
</svg>
