<svg width="331" height="148" viewBox="0 0 331 148" fill="none" xmlns="http://www.w3.org/2000/svg">
<path d="M186.829 101.666C186.829 101.666 227.006 91.7692 258.099 101.666C289.192 111.563 329.975 98.3671 329.975 98.3671C329.975 98.3671 290.895 102.768 251.819 74.1727C212.744 45.5775 182.155 64.2759 149.023 61.5312C115.891 58.7799 76.8105 31.2865 58.124 15.3461C39.4324 -0.601007 27.1124 1.04846 27.1124 1.04846C27.1124 1.04846 24.1407 5.99687 13.9462 12.5947C3.75172 19.1926 -11.54 25.7905 19.0434 38.9862C49.6269 52.182 64.0674 70.8738 64.0674 70.8738M92.3775 91.9408C92.3775 91.9408 121.513 103.863 146.475 101.112M80.2104 78.5735L64.9186 124.759M64.9186 111.563H59.8214M70.0159 111.563L75.1131 118.161M169.652 101.706L167.266 147M163.897 136.173L159.167 138.64M168.622 133.705L175.034 136.655" stroke="white" stroke-width="1.6087" stroke-miterlimit="10" stroke-linecap="round" stroke-linejoin="round"/>
</svg>
